name Walk7.mot
datacolumns 19
datarows 27
range 1.21100000 1.23700000
endheader

                time	   L_ground_force_vx	   L_ground_force_vy	   L_ground_force_vz	   L_ground_force_px	   L_ground_force_py	   L_ground_force_pz	   R_ground_force_vx	   R_ground_force_vy	   R_ground_force_vz	   R_ground_force_px	   R_ground_force_py	   R_ground_force_pz	   L_ground_torque_x	   L_ground_torque_y	   L_ground_torque_z	   R_ground_torque_x	   R_ground_torque_y	   R_ground_torque_z	
          1.21100000	         -9.73377171	        155.30484068	        -26.16758947	         -0.00458236	          0.00000000	         -0.00260230	         -0.00000000	          0.00000000	          0.00000000	          0.00000000	          0.00000000	          0.00000000	          0.00000000	          0.22805848	          0.00000000	          0.00000000	         -0.00000000	          0.00000000	
          1.21200000	        -11.09983975	        167.18941064	        -27.90951508	         -0.01763917	          0.00000000	         -0.00196688	         -0.00000000	          0.00000000	          0.00000000	          0.00000000	          0.00000000	          0.00000000	          0.00000000	          0.24172980	          0.00000000	          0.00000000	         -0.00000000	          0.00000000	
          1.21300000	        -12.53882002	        179.41021286	        -29.69291790	         -0.03066469	          0.00000000	         -0.00133756	         -0.00000000	          0.00000000	          0.00000000	          0.00000000	          0.00000000	          0.00000000	          0.00000000	          0.25605348	          0.00000000	          0.00000000	          0.00000000	          0.00000000	
          1.21400000	        -14.05171936	        191.94967461	        -31.51439608	         -0.04362718	          0.00000000	         -0.00071593	         -0.00000000	          0.00000000	          0.00000000	          0.00000000	          0.00000000	          0.00000000	          0.00000000	          0.27102288	          0.00000000	          0.00000000	          0.00000000	          0.00000000	
          1.21500000	        -15.63934840	        204.78742082	        -33.37008410	         -0.05649440	          0.00000000	         -0.00010360	         -0.00000000	          0.00000000	          0.00000000	          0.00000000	          0.00000000	          0.00000000	          0.00000000	          0.28662737	          0.00000000	          0.00000000	          0.00000000	          0.00000000	
          1.21600000	        -17.30229786	        217.90007851	        -35.25562436	         -0.06923344	          0.00000000	          0.00049788	         -0.00000000	          0.00000000	          0.00000000	          0.00000000	          0.00000000	          0.00000000	          0.00000000	          0.30285208	          0.00000000	          0.00000000	          0.00000000	          0.00000000	
          1.21700000	        -19.04091589	        231.26109637	        -37.16613955	         -0.08181082	          0.00000000	          0.00108693	         -0.00000000	          0.00000000	          0.00000000	          0.00000000	          0.00000000	          0.00000000	          0.00000000	          0.31967758	          0.00000000	          0.00000000	          0.00000000	          0.00000000	
          1.21800000	        -20.85529109	        244.84063329	        -39.09620934	         -0.09419345	          0.00000000	          0.00166211	         -0.00000000	          0.00000000	          0.00000000	          0.00000000	          0.00000000	          0.00000000	          0.00000000	          0.33707918	          0.00000000	          0.00000000	          0.00000000	          0.00000000	
          1.21900000	        -22.74524121	        258.60554743	        -41.03985337	         -0.10635027	          0.00000000	          0.00222208	         -0.00000000	          0.00000000	          0.00000000	          0.00000000	          0.00000000	          0.00000000	          0.00000000	          0.35502605	          0.00000000	          0.00000000	          0.00000000	          0.00000000	
          1.22000000	        -24.71030164	        272.51947390	        -42.99051967	         -0.11825327	          0.00000000	          0.00276575	         -0.00000000	          0.00000000	          0.00000000	          0.00000000	          0.00000000	          0.00000000	          0.00000000	          0.37348052	          0.00000000	          0.00000000	          0.00000000	          0.00000000	
          1.22100000	        -26.74971186	        286.54301430	        -44.94108027	         -0.12987767	          0.00000000	          0.00329213	         -0.00000000	          0.00000000	          0.00000000	          0.00000000	          0.00000000	          0.00000000	          0.00000000	          0.39239812	          0.00000000	          0.00000000	          0.00000000	          0.00000000	
          1.22200000	        -28.86240323	        300.63411021	        -46.88383966	         -0.14120176	          0.00000000	          0.00380036	         -0.00000000	          0.00000000	          0.00000000	          0.00000000	          0.00000000	          0.00000000	          0.00000000	          0.41172841	          0.00000000	          0.00000000	          0.00000000	          0.00000000	
          1.22300000	        -31.04698869	        314.74865528	        -48.81056110	         -0.15220675	          0.00000000	          0.00428967	         -0.00000000	          0.00000000	          0.00000000	          0.00000000	          0.00000000	          0.00000000	          0.00000000	          0.43141648	          0.00000000	          0.00000000	          0.00000000	          0.00000000	
          1.22400000	        -33.30175114	        328.84135450	        -50.71251487	         -0.16287662	          0.00000000	          0.00475935	         -0.00000000	          0.00000000	          0.00000000	          0.00000000	          0.00000000	          0.00000000	          0.00000000	          0.45140502	          0.00000000	          0.00000000	          0.00000000	          0.00000000	
          1.22500000	        -35.62462643	        342.86678448	        -52.58055135	         -0.17319795	          0.00000000	          0.00520872	         -0.00000000	          0.00000000	          0.00000000	          0.00000000	          0.00000000	          0.00000000	          0.00000000	          0.47163637	          0.00000000	          0.00000000	          0.00000000	          0.00000000	
          1.22600000	        -38.01317828	        356.78055369	        -54.40519994	         -0.18315977	          0.00000000	          0.00563720	         -0.00000000	          0.00000000	          0.00000000	          0.00000000	          0.00000000	          0.00000000	          0.00000000	          0.49205432	          0.00000000	          0.00000000	          0.00000000	          0.00000000	
          1.22700000	        -40.46456631	        370.54042758	        -56.17679220	         -0.19275337	          0.00000000	          0.00604422	         -0.00000000	          0.00000000	          0.00000000	          0.00000000	          0.00000000	          0.00000000	          0.00000000	          0.51260540	          0.00000000	          0.00000000	          0.00000000	          0.00000000	
          1.22800000	        -42.97551233	        384.10728578	        -57.88560428	         -0.20197219	          0.00000000	          0.00642927	         -0.00000000	          0.00000000	          0.00000000	          0.00000000	          0.00000000	          0.00000000	          0.00000000	          0.53323957	          0.00000000	          0.00000000	          0.00000000	          0.00000000	
          1.22900000	        -45.54227234	        397.44581523	        -59.52201091	         -0.21081162	          0.00000000	          0.00679189	         -0.00000000	          0.00000000	          0.00000000	          0.00000000	          0.00000000	          0.00000000	          0.00000000	          0.55391036	          0.00000000	          0.00000000	          0.00000000	          0.00000000	
          1.23000000	        -48.16062117	        410.52489795	        -61.07664124	         -0.21926889	          0.00000000	          0.00713167	         -0.00000000	          0.00000000	          0.00000000	          0.00000000	          0.00000000	          0.00000000	          0.00000000	          0.57457438	          0.00000000	          0.00000000	          0.00000000	          0.00000000	
          1.23100000	        -50.82585375	        423.31770609	        -62.54052764	         -0.22734288	          0.00000000	          0.00744825	         -0.00000000	          0.00000000	          0.00000000	          0.00000000	          0.00000000	          0.00000000	          0.00000000	          0.59519042	          0.00000000	          0.00000000	          0.00000000	          0.00000000	
          1.23200000	        -53.53280340	        435.80155691	        -63.90523966	         -0.23503402	          0.00000000	          0.00774132	         -0.00000000	          0.00000000	          0.00000000	          0.00000000	          0.00000000	          0.00000000	          0.00000000	          0.61571849	          0.00000000	          0.00000000	          0.00000000	          0.00000000	
          1.23300000	        -56.27587517	        447.95760173	        -65.16299798	         -0.24234414	          0.00000000	          0.00801063	         -0.00000000	          0.00000000	          0.00000000	          0.00000000	          0.00000000	          0.00000000	          0.00000000	          0.63611894	          0.00000000	          0.00000000	          0.00000000	          0.00000000	
          1.23400000	        -59.04909059	        459.77042680	        -66.30676609	         -0.24927634	          0.00000000	          0.00825601	         -0.00000000	          0.00000000	          0.00000000	          0.00000000	          0.00000000	          0.00000000	          0.00000000	          0.65635177	          0.00000000	          0.00000000	          0.00000000	          0.00000000	
          1.23500000	        -61.84614055	        471.22763515	        -67.33031969	         -0.25583488	          0.00000000	          0.00847731	         -0.00000000	          0.00000000	          0.00000000	          0.00000000	          0.00000000	          0.00000000	          0.00000000	          0.67637607	          0.00000000	          0.00000000	          0.00000000	          0.00000000	
          1.23600000	        -64.66044368	        482.31946145	        -68.22829589	         -0.26202508	          0.00000000	          0.00867446	         -0.00000000	          0.00000000	          0.00000000	          0.00000000	          0.00000000	          0.00000000	          0.00000000	          0.69614939	          0.00000000	          0.00000000	          0.00000000	          0.00000000	
          1.23700000	        -67.48520888	        493.03845177	        -68.99622477	         -0.26785314	          0.00000000	          0.00884747	         -0.00000000	          0.00000000	          0.00000000	          0.00000000	          0.00000000	          0.00000000	          0.00000000	          0.71562728	          0.00000000	          0.00000000	          0.00000000	          0.00000000	
